<svg width="1440" height="2455" viewBox="0 0 1440 2455" fill="none" xmlns="http://www.w3.org/2000/svg">
<g clipPath="url(#clip0_643_10105)">
<path d="M1175.15 2741C1185.96 2725.95 1197.05 2711.14 1207.46 2695.84C1223.93 2671.67 1230.76 2644.25 1231.87 2615.48C1234.86 2536.66 1221.89 2461.08 1184.82 2390.61C1181.05 2383.44 1177.31 2376.27 1173.11 2368.2C1169.55 2370.09 1166.68 2371.54 1163.84 2373.11C1135.97 2388.72 1106.78 2400.9 1075.08 2406.06C1027.6 2413.82 986.91 2403.5 958.209 2360.13C955.83 2361.99 953.482 2363.75 951.165 2365.57C917.429 2391.94 881.067 2413.64 838.773 2422.72C750.571 2441.64 697.896 2358.83 712.169 2295.96C719.337 2264.44 733.919 2237.85 757.491 2216.03C759.962 2213.74 762.557 2211.58 765.338 2209.66C782.886 2197.52 799.939 2204.94 802.658 2226.08C803.059 2229.29 802.225 2233.77 800.125 2235.81C798.734 2237.17 794.069 2235.54 790.98 2234.73C789.157 2234.27 787.613 2232.85 786.13 2231.98C785.234 2232.2 784.492 2232.14 784.214 2232.48C763.423 2256.8 750.88 2284.84 751.652 2316.98C752.764 2362.27 794.718 2391.07 837.661 2375.65C878.008 2361.15 911.25 2336.43 934.482 2299.49C938.653 2292.84 942.453 2285.86 947.211 2279.68C956.139 2268.02 968.003 2262.37 982.708 2266.29C997.136 2270.16 1004.09 2281 1006.16 2295.16C1007.11 2301.81 1006.99 2308.61 1007.61 2315.31C1009.68 2337.75 1021.63 2349.56 1044.22 2349.75C1054.44 2349.84 1065.47 2349.13 1074.8 2345.48C1096.65 2336.92 1117.68 2326.29 1139.09 2316.61C1144.69 2314.08 1145.12 2310.77 1142.92 2305.24C1128.53 2268.7 1119.23 2230.9 1116.97 2191.58C1113.42 2128.68 1134.61 2075.42 1179.69 2031.47C1184.38 2026.87 1188.37 2021.27 1191.67 2015.55C1198.16 2004.21 1207.46 1997.84 1220.41 1995.99C1226.4 1995.12 1232.52 1993.54 1238.05 1991.07C1273.82 1975.22 1306.94 1980.47 1334.9 2008.1C1369.9 2042.69 1377.5 2085.22 1367.99 2131.77C1360.05 2170.6 1343.18 2205.58 1319.45 2237.3C1294.43 2270.8 1265.11 2300.11 1232.46 2326.1C1226.96 2330.49 1226.12 2333.77 1229.49 2339.95C1257.29 2390.95 1276.85 2444.73 1283.89 2502.72C1288.81 2543.06 1289.86 2583.3 1283.49 2623.61C1277.28 2662.8 1261.9 2697.76 1236.5 2728.33C1233.17 2732.35 1230.39 2736.83 1227.33 2741.06C1209.96 2741 1192.54 2741 1175.15 2741ZM1198.56 2272.23C1200.67 2271.05 1201.99 2270.62 1202.98 2269.75C1231.53 2245.49 1258.1 2219.31 1278.39 2187.53C1295.11 2161.32 1305.86 2132.85 1306.17 2101.33C1306.35 2083.06 1299.71 2067.45 1285.62 2055.18C1277.71 2048.29 1269.19 2046.09 1260.23 2051.81C1247.25 2060.06 1233.47 2067.7 1222.35 2078.08C1192.48 2106.02 1178.36 2141.17 1180 2182.25C1181.26 2213.03 1188.8 2242.52 1198.56 2272.23Z" fill="black" fill-opacity="0.02"/>
<path d="M1410.96 2741C1426.2 2709.47 1439.94 2677.08 1457.03 2646.57C1485.79 2595.23 1526.51 2553.5 1571.24 2516.04C1665.65 2436.91 1771.56 2378.77 1891.15 2347.7C1976.51 2325.54 2062.58 2321.99 2147.88 2348.54C2222.43 2371.75 2288.54 2410.02 2344.46 2465C2350.24 2470.69 2355.39 2477.06 2360.21 2483.58C2363.15 2487.57 2365.84 2492.3 2366.79 2497.06C2367.69 2501.6 2366.21 2506.61 2365.81 2511.4C2361.08 2510.97 2355.89 2511.58 2351.75 2509.82C2346.43 2507.57 2341.83 2503.58 2337.17 2499.99C2313.16 2481.51 2289.59 2462.38 2265.18 2444.45C2194.31 2392.37 2114.45 2370.58 2026.96 2374.5C1948.52 2377.99 1873.88 2396.94 1802.64 2429.3C1716.35 2468.5 1637.36 2518.35 1570.9 2587.13C1529.57 2629.91 1497.13 2678.1 1473.74 2732.59C1472.54 2735.43 1471.21 2738.21 1469.94 2741.03C1450.26 2741 1430.61 2741 1410.96 2741Z" fill="black" fill-opacity="0.02"/>
<path d="M1351.8 478.723C1350.22 476.899 1349.2 475.632 1348.06 474.426C1327.89 453.129 1324.3 429.669 1337.28 403.303C1344.75 388.126 1355.78 375.763 1369.22 365.81C1422.64 326.215 1482.97 307.298 1549.18 306.185C1554.18 306.092 1559.25 306.865 1564.26 307.514C1604.94 312.954 1627.22 337.682 1628.33 378.761C1628.95 401.85 1623.76 423.982 1616.1 445.495C1601.05 487.686 1579.33 526.014 1549.49 559.706C1507.84 606.719 1460.48 647.056 1407.25 680.099C1286.73 754.931 1156.92 806.241 1017.03 831.061C978.351 837.923 939.27 838.912 900.714 830.165C887.214 827.105 873.867 821.788 861.541 815.39C836.331 802.254 824.19 780.339 824.715 752.025C825.611 704.703 840.626 661.831 866.577 622.421C885.391 593.83 903.989 565.053 921.846 535.874C929.415 523.511 936.119 510.312 941.031 496.681C948.538 475.848 942.792 457.859 926.109 442.837C895.555 415.358 859.131 406.549 819.34 408.125C762.526 410.351 707.349 421.138 653.902 440.487C627.643 450.008 602.433 461.29 583.001 482.617C576.08 490.221 566.874 488.799 560.726 480.392C555.103 472.664 554.516 463.886 558.007 455.54C561.128 448.153 565.298 440.92 570.365 434.707C583.495 418.603 599.622 405.59 618.745 397.616C680.101 372.115 743.402 353.693 810.535 355.208C863.95 356.413 911.589 373.104 949.681 413.132C976.158 440.982 985.487 472.479 973.686 508.921C968.279 525.612 960.649 541.809 952.153 557.171C935.748 586.875 917.922 615.838 900.838 645.171C882.394 676.791 868.924 710.143 866.916 747.234C865.804 767.882 869.913 774.373 889.87 780.555C925.893 791.744 962.502 791.126 998.957 783.584C1076.56 767.511 1150.24 739.754 1222.6 707.917C1287.88 679.171 1349.76 644.862 1407.1 602.361C1444.29 574.759 1477.01 542.489 1506.08 506.541C1530.77 476.033 1548.53 441.786 1557.89 403.55C1559.87 395.483 1559.96 386.89 1560.27 378.545C1560.49 372.394 1557.12 368.468 1550.69 367.943C1544.27 367.417 1537.81 366.397 1531.42 366.768C1480.84 369.673 1435.61 386.736 1396.25 418.82C1392.11 422.189 1388.25 425.867 1384.51 429.669C1373.05 441.353 1373.05 443.115 1383.46 455.262C1397.49 471.582 1399.1 486.852 1386.74 504.254C1379.82 514.021 1370.92 522.367 1362.7 531.145C1360.63 533.34 1357.79 534.885 1355.07 536.307C1343.27 542.52 1330.51 540.511 1323.81 531.516C1317.26 522.707 1318.37 510.219 1327.51 500.823C1334.99 493.157 1343.46 486.265 1351.8 478.723Z" fill="black" fill-opacity="0.02"/>
<path d="M-80.3795 1673.13C-76.5487 1672.3 -73.9227 1671.74 -71.2967 1671.13C-48.8677 1665.78 -26.6549 1666.89 -4.90555 1674.25C13.6926 1680.55 27.1006 1692.36 29.2941 1712.88C31.4876 1733.38 21.169 1748.28 4.17728 1758.01C-51.8953 1790.16 -121.654 1768.55 -136.483 1703.43C-148.655 1649.98 -109.327 1596.48 -52.9148 1590.45C-36.7882 1588.72 -19.4875 1589.56 -3.82425 1593.51C48.3557 1606.74 90.3716 1636.79 119.288 1681.67C155.311 1737.64 156.114 1796.77 123.305 1854.91C88.6106 1916.36 34.3916 1953.18 -32.9264 1970.05C-125.052 1993.14 -206.458 1970.95 -275.475 1905.92C-311.312 1872.16 -326.079 1827.84 -332.505 1780.3C-339.086 1731.71 -332.66 1684.32 -316.749 1638.39C-279.399 1530.73 -218.785 1438.81 -129.934 1366.39C-106.083 1346.98 -80.4722 1330.22 -52.1116 1318.32C-41.9783 1314.06 -30.702 1311.62 -19.7346 1310.44C-8.52011 1309.27 1.18054 1314.43 7.32843 1324.29C8.87314 1326.76 9.76913 1331.21 8.56427 1333.44C7.39029 1335.6 2.84888 1337.58 0.253784 1337.05C-16.8615 1333.75 -31.0728 1340.58 -45.0987 1348.77C-96.7534 1378.88 -137.503 1420.97 -172.814 1468.24C-220.113 1531.51 -253.88 1601.42 -269.142 1679.47C-275.197 1710.41 -274.517 1741.32 -267.412 1772.26C-256.074 1821.59 -227.188 1856.49 -182.546 1879.33C-103.921 1919.61 -5.61612 1903.6 55.7393 1839.98C74.8318 1820.17 89.074 1797.52 92.3488 1769.51C95.1292 1745.87 90.835 1723.12 77.118 1703.61C52.3411 1668.44 18.5121 1646.92 -24.7394 1641.79C-38.1783 1640.19 -51.0612 1642.78 -62.7391 1649.95C-71.0496 1655.11 -76.9503 1662.22 -80.3795 1673.13Z" fill="black" fill-opacity="0.02"/>
<path d="M1091.58 1531.14C1090.16 1539.7 1089.48 1547.83 1087.44 1555.62C1077.06 1594.81 1027.85 1614.44 992.997 1593.51C968.715 1578.95 963.308 1548.54 980.98 1525.7C992.101 1511.36 1007.58 1503.63 1024.2 1497.75C1027.29 1496.67 1030.41 1495.62 1033.75 1494.48C1005.35 1462.09 904.857 1454.26 859.195 1479.33C865.405 1497.29 873.16 1514.51 877.238 1532.59C883.911 1562.11 868.958 1580.72 838.713 1582.57C813.318 1584.15 790.982 1576.11 773.156 1557.69C750.078 1533.86 750.727 1501.53 774.299 1478.03C778.037 1474.29 782.177 1470.96 786.996 1466.63C771.456 1458.72 755.608 1454.91 739.018 1456.68C700.4 1460.76 667.313 1476.46 641.609 1506.1C616.554 1535 625.606 1577.97 660.145 1595.06C664.656 1597.28 669.506 1598.86 673.955 1601.21C683.378 1606.15 684.088 1614.04 675.469 1620.31C665.089 1627.88 653.225 1629.15 640.899 1626.71C593.569 1617.37 563.293 1563.87 580.161 1517.17C584.919 1504 592.735 1491.29 601.694 1480.48C633.947 1441.56 675.84 1419.34 726.104 1413.84C760.149 1410.13 790.333 1421.44 817.612 1440.94C823.328 1445.05 827.869 1445.42 834.419 1443.2C878.999 1428.21 924.505 1418.66 971.711 1426.69C1012.52 1433.65 1047.77 1451.3 1074.25 1484.4C1076.47 1487.15 1081.91 1488.39 1085.93 1488.51C1138.42 1490.09 1176.45 1513.86 1197.92 1562.11C1210.46 1590.3 1209.01 1619.6 1201.25 1648.78C1198.97 1657.43 1196.19 1666.03 1192.79 1674.31C1190.72 1679.35 1191.46 1682.1 1195.57 1685.65C1201.44 1690.79 1206.97 1696.53 1211.63 1702.78C1231 1728.84 1233.66 1756.81 1219.27 1785.99C1206.75 1811.39 1188.93 1832.48 1165.63 1848.64C1160.75 1852.04 1160.13 1854.58 1162.27 1860.14C1176.11 1896.49 1170.45 1929.53 1144.25 1958.68C1142.18 1960.97 1140.05 1963.25 1137.7 1965.23C1095.44 2000.69 1046.66 2019.85 991.669 2022.72C983.142 2023.16 974.307 2021.49 965.934 2019.51C959.941 2018.12 954.256 2014.78 952.773 2009.06C1005.66 1996.61 1054.45 1977.13 1098.1 1945.94C1106.69 1939.82 1114.87 1932.56 1121.61 1924.49C1134.49 1909.04 1135.33 1887.59 1125.1 1872.04C1113.79 1875.01 1102.58 1878.47 1091.12 1880.82C1079.25 1883.26 1067.54 1881.71 1056.79 1875.84C1043.57 1868.58 1035.38 1857.57 1035.23 1842.09C1035.07 1826.76 1042.49 1815.23 1055.5 1807.47C1069.37 1799.19 1084.47 1798.32 1099.4 1803.36C1109.37 1806.73 1118.52 1812.51 1128.25 1816.77C1130.85 1817.92 1134.99 1818.6 1137.09 1817.33C1157.23 1805.24 1173.45 1789.11 1184.2 1768.09C1193.5 1749.95 1186.89 1730.38 1173.02 1722.34C1163.56 1729.7 1154.97 1736.04 1146.76 1742.87C1135.14 1752.51 1122.88 1760.64 1107.43 1762.5C1086.45 1765 1068.93 1755.79 1060.07 1737.74C1051.39 1720.03 1054.57 1699.53 1069.27 1684.97C1086.88 1667.54 1109.07 1661.64 1133.19 1661.76C1137.4 1661.79 1141.84 1661.64 1145.71 1663C1153.74 1665.78 1156.46 1661.85 1158.93 1655.15C1165.02 1638.64 1169 1621.86 1168.1 1604.15C1166.19 1564.12 1131.59 1530.95 1091.58 1531.14ZM850.73 1542.91C848.722 1523.44 838.96 1508.17 825.675 1493.21C819.713 1498.4 814.121 1502.67 809.363 1507.68C807.633 1509.5 806.49 1513.7 807.355 1515.87C812.576 1528.85 835.592 1545.73 850.73 1542.91ZM1019.6 1550.52C1028.31 1558.24 1043.35 1560.28 1051.39 1555.43C1057.81 1551.57 1060.59 1542.51 1058.06 1532.84C1044.03 1536.08 1030.19 1539.39 1019.6 1550.52Z" fill="black" fill-opacity="0.02"/>
<path d="M376.164 611.077C366.278 613.395 358.4 614.291 351.326 617.104C328.928 626.037 306.437 634.908 284.687 645.294C236.956 668.105 191.913 695.645 149.526 727.297C132.071 740.31 116.655 756.074 100.436 770.725C98.0569 772.889 96.4195 775.856 93.1139 780.152C104.297 782.44 113.72 785.5 123.297 786.149C161.359 788.776 199.575 789.58 237.543 793.196C267.047 796.009 296.427 801.016 325.498 806.951C337.825 809.455 349.935 815.575 360.779 822.251C382.59 835.635 388.985 857.735 379.439 881.567C372.735 898.351 361.891 912.476 348.02 923.697C329.947 938.348 310.885 951.762 292.225 965.672C290.001 967.341 287.622 968.794 285.244 970.401C304.274 1014.76 290.557 1058.4 283.204 1102.01C282.185 1108.01 281.66 1112.59 286.294 1117.22C291.144 1122.04 289.352 1124.95 283.019 1127.14C254.998 1136.88 235.751 1123.71 236.524 1093.92C236.833 1081.74 239.922 1069.56 242.363 1057.5C244.865 1045.14 248.387 1032.99 250.951 1020.63C252.063 1015.19 252.403 1009.47 252.249 1003.91C251.909 992.13 249.128 990.585 238.841 995.376C230.716 999.178 222.621 1003.23 214.187 1006.16C207.669 1008.45 200.625 1010.15 193.766 1010.46C178.968 1011.11 166.703 1002.21 162.811 989.256C158.733 975.717 164.077 961.623 177.454 954.019C186.445 948.919 196.207 945.117 205.846 941.346C241.529 927.375 275.574 910.189 306.746 887.811C315.674 881.412 323.398 873.314 331.677 865.988C331.337 864.876 330.967 863.732 330.627 862.619C321.142 860.857 311.658 857.705 302.173 857.612C267.974 857.303 233.743 857.365 199.574 858.57C163.645 859.806 127.622 863.237 92.187 855.355C75.9676 851.739 59.3776 846.577 45.0119 838.51C13.0057 820.551 3.49043 787.107 18.6903 753.601C27.804 733.51 41.768 716.88 58.389 702.94C75.7823 688.382 93.639 674.04 112.762 661.954C172.141 624.399 233.836 590.893 298.621 563.6C320.154 554.512 343.17 548.176 366.093 543.508C378.79 540.912 393.187 542.396 405.977 545.425C437.891 553.059 453.399 582.702 443.266 613.951C437.613 631.446 427.634 646.777 414.01 658.554C391.333 678.151 367.36 696.264 343.695 714.686C339.215 718.179 333.222 722.753 327.754 717.9C322.193 712.955 326.703 706.804 329.36 701.796C332.511 695.893 336.342 690.298 340.173 684.765C353.056 666.312 365.321 647.519 372.117 625.79C373.353 621.833 374.311 617.784 376.164 611.077Z" fill="black" fill-opacity="0.02"/>
<path d="M1077.68 -22.0419C1092.51 -22.0419 1106.19 -22.0419 1120.71 -22.0419C1124.48 -7.08167 1124.58 7.90949 1122.07 22.9007C1117.65 49.3902 1106.81 73.4997 1092.35 95.7546C1064.05 139.306 1043.42 186.722 1021.85 233.581C1012.12 254.754 1006.47 278.06 1001.49 300.964C999.115 311.937 1001.22 324.486 1003.72 335.799C1008.38 356.879 1021.91 370.51 1042.86 376.97C1091.15 391.931 1138.66 391.745 1184.66 369.181C1204 359.692 1223 349.244 1241.2 337.684C1263.13 323.775 1273.67 302.725 1274.32 276.669C1274.81 256.948 1260.48 234.91 1241.32 229.624C1201.75 218.682 1163.47 223.566 1126.89 241.988C1102.12 254.445 1095.01 276.607 1094.67 302.231C1094.55 312.246 1091.61 314.317 1082.59 309.773C1065.44 301.118 1057.91 286.003 1055.59 267.736C1050.46 227.182 1066.15 196.582 1100.26 174.945C1119.57 162.705 1141.07 156.461 1163.41 152.752C1167.21 152.103 1171.04 151.454 1175.03 150.774C1175.03 148.672 1175.27 147.281 1174.99 145.983C1166.22 104.533 1181.33 68.5542 1201.5 34.1518C1208.92 21.5097 1220.44 12.7005 1235.61 10.2277C1237.86 9.8568 1241.2 9.98043 1242.37 11.3405C1243.39 12.515 1242.44 15.8842 1241.66 18.0169C1225.91 61.8468 1221.09 105.8 1240.12 150.001C1241.17 152.443 1243.98 154.576 1246.48 155.812C1249.97 157.512 1253.99 158.068 1257.7 159.336C1324.52 181.683 1351.77 253.425 1316.12 314.224C1299.03 343.372 1276.26 367.172 1245.62 382.349C1206.26 401.791 1166.19 419.997 1121.58 422.809C1086.88 425.004 1052.47 420.646 1019.38 409.889C976.747 396.042 947.707 351.315 948.387 302.756C948.974 262.296 957.377 223.566 975.419 187.247C997.137 143.51 1018.3 99.5565 1048.11 60.2704C1066.19 36.5318 1077.74 9.42406 1077.68 -22.0419Z" fill="black" fill-opacity="0.02"/>
<path d="M507.254 197.29C507.161 274.255 452.695 355.146 379.692 385.746C348.211 398.945 315.433 405.436 281.017 400.923C201.372 390.476 153.765 325.287 168.408 246.22C173.599 218.216 183.794 192.345 202.145 170.059C203.751 168.112 204.987 165.021 204.832 162.579C200.198 89.6941 259.268 47.9043 308.482 40.7641C362.206 32.9749 410.586 46.0497 452.911 79.6794C487.574 107.313 507.285 151.575 507.254 197.29ZM248.64 159.828C258.032 175.437 257.754 180.723 247.59 194.076C246.756 195.189 246.045 196.425 245.52 197.723C234.8 223.965 227.818 251.011 228.93 279.572C230.474 319.043 252.564 343.895 291.027 349.088C299.244 350.2 307.895 350.046 316.143 348.933C372.803 341.206 422.882 294.223 437.433 235.773C440.863 221.956 442.531 207.954 438.422 194.169C425.91 152.101 397.92 125.951 354.792 118.255C311.664 110.558 277.155 127.527 248.64 159.828Z" fill="black" fill-opacity="0.02"/>
<path d="M374.594 2232.35C375.212 2187.01 386.117 2140.43 403.696 2095.39C431.624 2023.87 471.385 1959.91 527.303 1906.72C566.291 1869.6 610.099 1840.57 663.175 1827.44C699.197 1818.5 732.408 1821.93 766.175 1840.26C797.007 1856.99 809.056 1880.88 806.461 1912.93C804.638 1935.37 801.332 1958.68 793.207 1979.42C736.362 2124.66 650.724 2248.33 518.838 2335.84C502.866 2346.44 484.484 2353.42 467.183 2361.96C463.414 2363.81 459.213 2364.77 455.567 2366.78C445.557 2372.28 441.294 2370.73 431.933 2364.95C412.532 2352.96 399.216 2336.33 389.856 2316.09C378.023 2290.59 374.563 2263.45 374.594 2232.35ZM417.568 2239.37C417.907 2245.09 418.031 2255.5 419.267 2265.8C421.954 2288.48 426.65 2310.61 439.162 2330.37C441.727 2334.42 444.291 2335.84 448.709 2333.36C453.837 2330.49 459.244 2328.11 464.279 2325.08C505.059 2300.57 539.846 2269.23 571.481 2233.77C613.744 2186.42 655.791 2138.97 690.361 2085.53C720.977 2038.21 747.484 1988.78 761.139 1933.67C765.001 1918.12 765.156 1901.59 765.99 1885.45C766.391 1877.57 762.406 1871.08 755.022 1866.85C752.088 1865.15 750.296 1861.53 747.762 1859.03C745.044 1856.34 742.418 1852.6 739.081 1851.61C711.122 1843.45 684.028 1847.84 657.861 1859.09C633.146 1869.69 611.335 1885.08 591.068 1902.48C533.111 1952.25 489.025 2012.62 456.865 2081.7C434.25 2130.1 419.267 2180.73 417.568 2239.37Z" fill="black" fill-opacity="0.02"/>
<path d="M662.059 1079.83C655.077 1086.2 649.177 1091.76 643.09 1097.11C627.798 1110.65 617.294 1108.36 608.613 1089.69C608.149 1088.67 607.531 1087.74 606.79 1086.41C605.77 1087 604.782 1087.43 604.009 1088.08C589.304 1100.39 575.433 1098.31 565.454 1081.9C561.469 1075.38 561.654 1068.39 566.473 1062.18C571.262 1056 577.811 1055.54 587.759 1060.14C615.162 1038.2 622.021 1039.83 631.505 1071.7C635.212 1065.7 638.302 1060.3 641.793 1055.13C655.88 1034.33 675.189 1035.32 687.052 1057.39C700.8 1083.01 708.184 1110.52 710.007 1139.45C711.551 1164.12 702.87 1184.49 683.314 1200.01C663.079 1216.08 640.588 1228.38 616.151 1236.14C574.722 1249.31 532.83 1261.02 491.123 1273.42C459.117 1282.94 427.08 1292.43 395.135 1302.13C387.937 1304.33 381.017 1307.29 372.181 1310.57C375.827 1313.57 378.113 1315.76 380.677 1317.53C398.472 1329.58 418.738 1333.51 439.653 1335.36C442.156 1335.58 444.689 1335.64 447.222 1335.92C471.443 1338.67 484.975 1352.17 485.994 1376.62C486.55 1389.64 487.91 1401.82 493.162 1414.06C498.908 1427.5 494.398 1440.7 485.809 1451.98C478.673 1461.38 466.593 1461.29 461.712 1450.62C455.286 1436.56 447.253 1423.76 438.912 1410.9C435.606 1405.77 434.123 1398.63 434.123 1392.42C434.123 1382.65 429.428 1380.3 420.932 1379.53C394.919 1377.21 370.08 1370.23 347.188 1357.65C337.95 1352.58 328.806 1346.49 321.36 1339.1C291.888 1309.8 296.151 1267.51 331.432 1245.78C344.562 1237.69 359.762 1231.32 374.838 1228.29C427.605 1217.59 480.712 1208.32 533.787 1199.23C567.246 1193.52 601.044 1189.78 634.44 1183.72C647.477 1181.34 660.237 1175.99 672.378 1170.33C688.474 1162.82 692.675 1152.38 688.535 1135.16C683.716 1115.31 674.695 1097.45 662.059 1079.83Z" fill="black" fill-opacity="0.02"/>
<path d="M803.306 195.776C762.588 125.797 723.816 54.2408 690.543 -22.2915C712.045 -22.2915 730.798 -22.446 749.519 -22.106C751.62 -22.0751 754.524 -19.7569 755.637 -17.7477C777.726 22.6202 799.66 63.0191 821.441 103.573C831.945 123.107 842.418 142.673 852.057 162.61C856.505 171.821 860.491 181.774 861.974 191.789C864.322 207.522 856.969 219.545 842.696 226.871C838.71 228.911 834.509 230.611 830.215 231.878C764.349 251.63 699.193 273.421 636.231 301.301C615.718 310.389 595.884 320.96 575.679 330.696C568.357 334.22 561.035 337.96 553.312 340.247C540.46 344.08 528.597 341.237 519.668 330.851C510.709 320.434 510.122 308.472 515.25 296.078C516.424 293.234 517.814 290.421 519.575 287.917C548.708 246.53 561.962 199.083 571.91 150.462C575.216 134.266 577.378 117.822 580.313 101.502C581.055 97.4215 582.136 93.2178 584.02 89.5395C587.079 83.5122 592.454 80.5758 599.282 81.2867C606.171 81.9976 611.269 86.0468 612.319 92.6305C613.617 100.852 614.142 109.384 613.493 117.667C609.94 162.95 599.467 206.842 586.523 250.239C584.762 256.142 583.124 262.108 581.487 268.043C581.364 268.475 581.765 269.032 581.487 268.166C655.694 243.964 729.902 219.731 803.306 195.776Z" fill="black" fill-opacity="0.02"/>
<path d="M-57.9555 310.548C-64.3506 310.548 -70.2205 311.043 -75.9668 310.455C-102.041 307.766 -124.038 287.644 -131.761 258.836C-140.659 225.516 -133.677 195.317 -111.68 168.982C-91.5991 144.965 -69.4481 139.865 -36.4534 150.807C-35.2794 147.747 -34.1055 144.625 -32.9315 141.534C-12.2016 86.2059 10.8144 32.0832 47.1148 -15.3322C51.1928 -20.6486 55.2709 -22.7196 61.7586 -22.4105C71.552 -21.9159 81.3762 -22.2868 92.8997 -22.2868C89.8103 -17.1867 87.4624 -12.9521 84.8055 -8.96478C39.2678 59.2837 11.5559 134.827 -4.38541 214.728C-13.53 260.505 -14.704 306.87 -2.1302 352.492C15.1704 415.363 53.757 462.376 108.408 496.562C117.46 502.219 128.613 504.568 138.932 508.091C145.296 510.255 152.031 511.368 158.302 513.748C167.818 517.333 172.791 525.03 172.143 533.685C171.463 542.37 165.562 549.294 155.614 551.458C149.652 552.725 143.349 553.127 137.263 552.849C113.413 551.829 91.6639 544.225 71.9536 530.748C-3.36592 479.315 -47.328 408.933 -56.7198 317.657C-56.9669 315.184 -57.5539 312.804 -57.9555 310.548ZM-104.976 230.368C-104.729 242.64 -102.381 254.911 -94.6576 265.605C-89.4365 272.838 -82.5163 277.197 -73.3408 277.073C-64.1653 276.949 -58.8515 271.385 -57.554 262.298C-53.8158 236.21 -50.0158 210.154 -45.5671 184.189C-44.6094 178.595 -45.9379 175.906 -50.5102 173.526C-61.8174 167.591 -76.1212 170.126 -86.7487 180.604C-100.435 194.111 -104.389 211.359 -104.976 230.368Z" fill="black" fill-opacity="0.02"/>
<path d="M-157.465 1173.33C-226.142 1170.27 -289.877 1144.74 -333.962 1080.26C-356.978 1046.6 -364.207 1010.06 -354.321 970.436C-352.777 964.285 -350.058 958.196 -346.783 952.756C-342.118 945.059 -334.209 942.278 -327.289 945.214C-319.318 948.614 -317.341 955.383 -318.392 963.296C-319.627 972.754 -321.512 982.12 -322.47 991.609C-324.694 1013.96 -319.04 1034.42 -306.868 1053.24C-280.763 1093.61 -244.122 1117.88 -196.793 1126.81C-136.982 1138.09 -84.9566 1120.66 -39.0482 1083.47C-15.1671 1064.09 -3.4274 1037.05 -5.65179 1005.95C-8.30865 968.736 -50.8497 934.797 -87.8298 940.268C-95.924 941.474 -103.091 948.645 -110.753 952.941C-113.75 954.61 -116.932 955.878 -120.052 957.3C-120.701 953.9 -122.184 950.438 -121.906 947.099C-119.28 914.984 -99.3533 896.717 -66.4203 895.851C13.4098 893.749 67.5978 961.596 47.9801 1039.67C37.5998 1081 14.831 1113.76 -22.3345 1135.46C-62.0333 1158.64 -104.358 1173.11 -157.465 1173.33Z" fill="black" fill-opacity="0.02"/>
<path d="M1279.78 1071.85C1276.11 1081.06 1273.3 1089.56 1269.34 1097.51C1265.36 1105.48 1260.26 1112.9 1255.87 1120.13C1256.37 1121.37 1256.43 1122.08 1256.83 1122.36C1264.55 1127.8 1272.52 1133.58 1270.83 1144.43C1268.79 1157.22 1262.92 1168.54 1252.29 1176.39C1245.83 1181.15 1236.81 1177.96 1236.01 1170.05C1235.17 1161.86 1237.37 1153.36 1238.23 1144.98C1239 1144.92 1239.78 1144.89 1240.55 1144.83C1239.31 1143.81 1238.08 1142.73 1236.81 1141.74C1225.47 1132.99 1222.41 1121.59 1229.64 1109.1C1234.8 1100.16 1241.72 1092.28 1247.9 1083.97C1258.22 1070.15 1257.39 1067.62 1241.17 1062.05C1231.37 1058.68 1221.27 1055.84 1212.1 1051.17C1195.54 1042.77 1186.39 1028.89 1186.61 1009.88C1186.79 990.869 1200.76 976.125 1219.79 975.259C1226.12 974.981 1232.67 976.001 1238.88 977.516C1245.37 979.092 1251.95 981.256 1257.85 984.347C1318.22 1016.06 1362.43 1061.74 1377.9 1129.99C1389.43 1180.78 1371.32 1223.43 1327.21 1250.97C1287.26 1275.89 1243.42 1287.79 1196.19 1280.09C1171.1 1276.01 1150.96 1263.15 1145.64 1236.07C1140.73 1210.98 1147.71 1187.58 1160.81 1166.13C1165.32 1158.74 1172.92 1156.36 1181.45 1158.58C1189.39 1160.62 1195.32 1167.8 1195.29 1176.64C1195.26 1181.83 1193.62 1187.08 1192.35 1192.21C1190.19 1200.9 1187.04 1209.4 1185.56 1218.21C1183.24 1232.06 1186.92 1238.15 1200.97 1239.85C1213.89 1241.39 1227.33 1241.17 1240.21 1239.44C1263.75 1236.26 1286.03 1228.69 1305.92 1215.09C1320.63 1205.04 1327.76 1191.44 1326.37 1173.51C1323.22 1133.76 1305.58 1100.84 1279.78 1071.85Z" fill="black" fill-opacity="0.02"/>
<path d="M523.623 2400.69C616.583 2406.06 687.33 2446.46 734.196 2526.12C755.05 2561.6 751.126 2603.45 726.813 2633.44C708.4 2656.15 684.89 2664.19 656.467 2659.49C637.591 2656.37 620.29 2649.42 604.751 2638.29C570.922 2614.06 542.623 2585.19 525.817 2546.12C517.63 2527.04 507.898 2508.65 498.29 2490.23C494.953 2483.86 490.227 2478.11 485.624 2472.52C482.256 2468.44 478.055 2465.01 474.224 2461.3C466.284 2453.63 458.869 2445.1 463.225 2433.33C468.447 2419.26 474.965 2405.54 493.038 2403.96C503.604 2403 514.17 2401.71 523.623 2400.69ZM525.662 2444.08C525.786 2445.75 525.631 2446.43 525.909 2446.8C546.268 2474.75 559.862 2506.18 571.818 2538.27C581.735 2564.82 597.923 2586.55 619.24 2604.6C633.637 2616.78 650.041 2625.09 669.226 2626.88C679.545 2627.84 687.794 2624.29 694.559 2616.44C708.369 2600.39 711.15 2575.51 699.224 2556.66C663.666 2500.46 615.564 2461.15 548.802 2447.95C541.233 2446.49 533.571 2445.38 525.662 2444.08Z" fill="black" fill-opacity="0.02"/>
<path d="M1554.4 1772.79C1552.33 1776.1 1550.79 1779.93 1548.1 1782.59C1534.01 1796.68 1520.05 1810.9 1505.22 1824.16C1499.32 1829.45 1491.72 1833.4 1484.24 1836.25C1461.78 1844.81 1441.67 1834.58 1434.62 1811.55C1429.56 1795.01 1430.42 1778.23 1433.6 1761.51C1439.29 1731.68 1451.8 1704.54 1465.46 1677.62C1475.16 1658.48 1482.94 1638.27 1490.51 1618.15C1492.86 1611.9 1492.43 1604.24 1491.9 1597.35C1490.51 1579.79 1478.22 1569.13 1460.67 1570.45C1442.29 1571.88 1425.7 1578.37 1412.16 1591.35C1410.09 1593.33 1407.99 1596.26 1407.75 1598.92C1406.94 1607.39 1401.63 1608.23 1395.2 1607.08C1386.68 1605.54 1380.1 1595.92 1383.49 1587.05C1386.77 1578.43 1391.59 1569.37 1398.23 1563.22C1419.95 1543.19 1446.21 1535.56 1475.34 1541.43C1504.41 1547.3 1522.76 1572.8 1523.63 1607.21C1524.25 1631.75 1518.19 1655.08 1509.2 1677.68C1497.49 1707.2 1486.03 1736.75 1480.93 1768.31C1479.91 1774.64 1479.23 1781.01 1478.03 1790.01C1482.32 1786.42 1484.89 1784.53 1487.14 1782.34C1504.69 1765.34 1521.9 1748 1539.82 1731.46C1545.87 1725.87 1553.29 1721.17 1560.86 1717.83C1581.9 1708.62 1600.59 1719.69 1600.96 1742.62C1601.27 1762.16 1598.98 1781.78 1596.85 1801.26C1595.8 1810.93 1592.52 1820.36 1590.05 1830.74C1592.59 1830.99 1594.93 1831.24 1597.28 1831.39C1614.64 1832.6 1625.39 1840.88 1630.31 1857.64C1632.35 1864.59 1633.74 1871.85 1634.63 1879.06C1636.73 1895.53 1642.82 1909.84 1655.33 1921.12C1656.07 1921.8 1656.44 1922.92 1657.59 1924.77C1647.14 1929.56 1637.6 1928.51 1628.73 1922.98C1614.37 1914.01 1605.07 1900.91 1599.57 1885.02C1598.02 1880.54 1596.82 1875.96 1595.15 1870.34C1590.08 1871.64 1585.32 1872.87 1580.57 1874.05C1553.69 1880.79 1535.59 1864.1 1541.52 1836.93C1545.41 1819.15 1551.4 1801.84 1556.35 1784.29C1557.15 1781.44 1557.37 1778.41 1557.86 1775.48C1556.72 1774.61 1555.54 1773.68 1554.4 1772.79Z" fill="black" fill-opacity="0.02"/>
<path d="M90.3328 2096.56C86.5946 2089.42 82.2694 2083.86 80.6629 2077.62C75.411 2057 93.2058 2038.18 115.635 2040.87C123.235 2041.76 130.495 2045.35 137.879 2047.85C140.752 2048.84 143.409 2050.79 146.344 2051.28C165.807 2054.53 172.294 2048.53 167.29 2029.49C163.984 2016.94 157.991 2004.89 151.874 1993.33C145.726 1981.7 137.384 1971.26 130.989 1959.76C112.731 1927.03 118.786 1895.81 147.61 1871.7C166.61 1855.81 189.224 1848.92 213.167 1845.45C241.373 1841.34 269.271 1841.87 295.901 1853.24C302.945 1856.24 309.464 1861.06 315.272 1866.13C319.937 1870.18 321.605 1876.49 317.805 1882.18C316.322 1884.4 312.244 1886.72 309.865 1886.26C271.217 1878.99 234.484 1886.13 198.925 1900.97C191.294 1904.15 184.065 1908.97 177.577 1914.2C168.618 1921.4 167.29 1927.55 171.955 1938.06C176.496 1948.29 181.964 1958.15 187.093 1968.14C196.484 1986.43 205.011 2005.07 207.452 2025.78C208.286 2032.71 208.626 2039.81 208.101 2046.77C206.216 2071.93 192.932 2088.84 167.475 2095.36C155.303 2098.48 146.931 2104.01 139.547 2114.09C130.804 2126.02 118.848 2135.6 110.012 2147.47C99.014 2162.22 88.6644 2177.67 80.1068 2193.93C72.5378 2208.27 74.9784 2212.14 87.2742 2222.49C92.9587 2227.28 97.7781 2233.22 102.412 2239.09C105.193 2242.61 103.833 2245.7 98.9831 2245.67C89.4986 2245.64 79.7052 2246.69 70.5606 2244.84C39.5739 2238.59 25.9497 2217.11 31.9122 2185.96C36.5463 2161.69 49.3364 2141.75 65.216 2123.58C73.4646 2114.06 82.3312 2105.13 90.3328 2096.56Z" fill="black" fill-opacity="0.02"/>
<path d="M-14.8853 2443.71C-14.7618 2423.03 -2.24967 2408.41 14.8038 2408.94C24.1647 2409.22 25.1533 2410.79 23.794 2419.94C23.2997 2423.34 23.763 2427.33 25.0915 2430.51C34.2052 2452.43 51.3822 2463.99 74.3365 2467.73C82.8632 2469.12 89.7217 2465.44 93.4907 2458.33C100.844 2444.55 108.567 2430.67 113.665 2415.99C121.666 2392.96 126.949 2368.97 134.796 2345.88C138.225 2335.78 139.461 2328.98 130.378 2320.69C120.616 2311.79 120.06 2298.47 123.025 2285.95C129.946 2256.62 145.115 2232.85 171.035 2216.5C181.23 2210.07 191.857 2203.98 200.878 2196.13C207.86 2190.07 214.224 2182.22 218.148 2173.9C225.161 2159.13 218.735 2146.39 203.504 2140.43C196.522 2137.68 192.413 2132.42 193.371 2124.79C194.329 2117.18 199.488 2113.14 207.026 2112.15C216.078 2110.94 223.493 2114.65 230.197 2120.12C247.837 2134.52 254.356 2157.77 247.435 2181.2C242.616 2197.49 233.44 2211.21 221.392 2222.89C212.154 2231.89 202.33 2240.3 192.506 2248.67C179.994 2259.34 171.683 2272.66 165.659 2287.84C162.817 2295.01 164.887 2298.65 171.776 2299.92C175.792 2300.66 180.025 2300.17 184.165 2300.45C195.781 2301.25 207.798 2300.6 218.92 2303.45C232.112 2306.81 238.569 2319.58 236.005 2331.54C233.348 2343.78 222.875 2351.26 209.065 2350.74C206.81 2350.64 204.585 2350.49 202.361 2350.18C183.361 2347.49 178.974 2349.66 171.22 2367.43C162.57 2387.24 155.032 2407.52 145.98 2427.11C136.928 2446.68 127.907 2466.46 116.538 2484.73C99.9476 2511.37 66.2731 2521.11 33.8036 2511C3.55838 2501.55 -15.0707 2475.8 -14.8853 2443.71Z" fill="black" fill-opacity="0.02"/>
<path d="M1410.96 1407.09C1380.34 1407 1351.55 1415.34 1323.96 1427.61C1303.63 1436.67 1295.42 1458.06 1301.87 1479.51C1302.52 1481.71 1302.12 1484.21 1302.21 1486.59C1299.62 1486.22 1296.71 1486.44 1294.46 1485.35C1274.75 1475.93 1265.11 1452.62 1272.15 1429.35C1280.06 1403.26 1295.85 1382.58 1320.07 1370C1384.61 1336.49 1448.71 1338.32 1508.99 1379.15C1550.14 1407.03 1582.14 1444.49 1603.68 1489.9C1614.64 1513.08 1620.88 1537.37 1616.84 1563.34C1613.56 1584.33 1601.88 1600.68 1587.12 1614.87C1584.55 1617.34 1577.48 1618.02 1574.42 1616.26C1571.33 1614.46 1569.88 1608.65 1569.23 1604.39C1568.86 1601.85 1571.11 1598.64 1572.81 1596.13C1588.26 1573.29 1589.12 1549.06 1580.01 1523.77C1572.97 1504.18 1562.19 1486.84 1547.7 1472.03C1510.13 1433.64 1466.75 1407.18 1410.96 1407.09Z" fill="black" fill-opacity="0.02"/>
<path d="M729.285 641.679C725.671 700.624 700.585 746.339 647.416 774.745C618.098 790.417 590.17 787.542 563.817 767.822C547.721 755.767 535.827 740.343 529.34 721.148C525.694 710.392 526.405 700.037 534.252 691.104C544.57 679.42 562.798 680.007 573.333 692.835C577.905 698.399 581.18 705.075 585.041 711.257C598.944 733.543 609.973 735.119 629.065 717.47C651.711 696.544 660.67 657.412 649.023 628.883C647.478 625.143 644.605 621.743 641.763 618.745C636.943 613.675 631.506 609.163 626.594 604.186C610.035 587.495 613.618 563.571 634.781 553.185C653.194 544.16 671.668 546.354 688.444 557.389C714.58 574.606 725.455 600.724 728.76 630.768C729.162 634.385 729.131 638.032 729.285 641.679Z" fill="black" fill-opacity="0.02"/>
<path d="M473.144 1007.87C488.622 999.304 498.323 988.084 506.17 975.38C513.245 963.943 519.176 951.796 525.757 940.05C528.63 934.919 531.441 929.664 534.963 924.997C541.513 916.312 550.379 911.984 561.408 913.715C572.808 915.508 580.563 922.524 583.436 933.25C585.629 941.503 585.413 950.405 586.154 959.029C586.37 961.687 586.185 964.345 588.132 967.745C590.912 963.418 593.94 959.245 596.442 954.763C602.868 943.234 608.367 931.148 615.565 920.144C620.848 912.046 627.336 904.164 634.874 898.198C651.989 884.691 673.77 890.873 681.71 911.242C684.799 919.186 685.726 928.088 687.023 936.65C689.124 950.467 691.935 953.589 705.776 951.085C717.546 948.952 728.915 944.656 740.501 941.41C743.559 940.545 746.71 939.988 752.117 938.752C749.676 942.616 748.904 944.748 747.39 946.047C735.527 956.185 724.621 968.023 711.368 975.813C686.931 990.216 662.895 982.025 644.791 954.825C642.876 957.514 641.177 959.832 639.601 962.212C633.268 971.794 627.707 982.025 620.416 990.835C614.082 998.5 606.544 1005.73 598.203 1011.05C578.276 1023.75 558.937 1018.75 546.054 998.995C545.158 997.635 544.108 996.398 543.459 995.502C533.573 1004.31 523.996 1012.9 514.357 1021.4C512.688 1022.89 510.711 1024.03 508.827 1025.24C477.438 1045.64 457.852 1042.14 435.546 1012.16C434.743 1011.11 433.816 1010.15 432.055 1008.08C425.506 1014.94 419.574 1021.65 413.055 1027.71C409.194 1031.3 404.652 1034.36 399.956 1036.77C390.194 1041.77 380.061 1039.83 373.048 1032.22C366.004 1024.59 364.15 1012.69 369.371 1004.13C371.132 1001.25 374.345 998.84 377.434 997.387C379.195 996.553 382.563 997.449 384.2 998.809C385.22 999.644 384.664 1002.83 384.262 1004.87C383.83 1007.03 381.821 1009.19 382.13 1011.11C382.717 1014.73 384.448 1018.16 385.714 1021.65C388.68 1020.17 392.913 1019.46 394.395 1017.05C401.532 1005.36 407.989 993.246 414.538 981.191C417.473 975.782 419.667 969.909 422.941 964.716C432.426 949.663 451.673 950.528 459.334 966.632C462.671 973.618 463.845 981.623 466.286 989.073C468.201 995.069 470.58 1000.91 473.144 1007.87Z" fill="black" fill-opacity="0.02"/>
<path d="M1445.94 147.431C1442.94 163.257 1445.84 177.692 1451.99 191.879C1457.09 203.656 1461.29 215.865 1465.55 228.013C1466.54 230.826 1466.45 234.102 1466.39 237.193C1466.29 243.406 1462.77 247.022 1456.75 245.91C1450.23 244.704 1443.53 242.973 1437.72 239.944C1396.2 218.245 1376.55 171.51 1389.62 125.362C1397.71 96.7088 1414.52 74.7629 1441.39 61.07C1466.63 48.2116 1487.61 61.75 1486.47 90.1868C1486.1 99.4288 1485.32 108.702 1485.48 117.944C1485.7 131.358 1491.47 142.27 1503.8 147.864C1514.15 152.562 1525.12 156.89 1536.24 158.652C1560.58 162.515 1585.21 164.772 1609.77 167.492C1616.72 168.265 1622.59 170.428 1624.66 177.661C1626.73 184.956 1624.19 192.003 1618.08 195.341C1610.91 199.236 1602.38 203.1 1594.6 202.883C1568.31 202.111 1541.71 201.616 1515.91 197.072C1485.76 191.787 1461.1 175.899 1445.94 147.431Z" fill="black" fill-opacity="0.02"/>
<path d="M509.073 1671.59C509.011 1720.99 474.565 1764.08 428.131 1772.88C384.138 1781.23 349.32 1751.8 349.815 1707.14C349.907 1699.5 348.579 1691.68 346.787 1684.2C343.203 1669.18 344.872 1654.87 352.935 1642.04C374.159 1608.23 405.825 1591.6 445.092 1591.26C468.757 1591.07 486.428 1603.99 497.951 1624.64C506.015 1639.2 509.135 1655.06 509.073 1671.59ZM457.666 1676.29C456.801 1672.18 456.028 1665.44 453.896 1659.17C449.201 1645.35 440.334 1639.51 426.123 1642.57C415.928 1644.76 405.825 1648.81 396.65 1653.85C391.151 1656.88 387.166 1663.06 383.397 1668.47C382.408 1669.89 383.891 1674.84 385.683 1676.17C398.287 1685.56 399.399 1699.01 387.289 1709.33C383.644 1712.43 383.613 1714.81 385.219 1718.58C391.645 1733.78 410.429 1739.97 426.586 1731.25C447.254 1720.12 456.275 1701.76 457.666 1676.29Z" fill="black" fill-opacity="0.02"/>
<path d="M34.5718 2039.62C31.606 2045.84 29.3198 2052.51 25.5199 2058.17C20.6695 2065.34 14.7378 2071.8 8.99155 2078.32C-16.218 2106.88 -36.0519 2139.12 -55.0518 2171.92C-57.1217 2175.47 -58.0175 2179.74 -59.2224 2183.76C-63.5475 2198.13 -75.5654 2206.72 -89.4059 2205.24C-102.937 2203.79 -111.773 2193.06 -114.152 2178.5C-116.469 2164.22 -120.671 2150.25 -124.254 2136.15C-127.56 2123.14 -132.194 2110.35 -134.202 2097.15C-135.469 2088.86 -134.233 2079.71 -132.009 2071.52C-128.023 2057.06 -116.593 2050.72 -101.702 2052.76C-99.5391 2053.07 -97.1603 2053.29 -95.0904 2052.7C-65.5866 2044.54 -36.2373 2036.04 -10.2863 2018.95C-7.04241 2016.81 -3.42787 2015.02 0.279419 2013.85C17.5492 2008.44 33.9539 2021.05 34.5718 2039.62Z" fill="black" fill-opacity="0.02"/>
<path d="M1157.94 611.695C1157.57 622.822 1153.06 633.981 1140.64 638.37C1123.15 644.552 1109.71 656.236 1095.72 667.394C1090.25 671.752 1084.97 676.481 1079.16 680.314C1066.15 688.938 1053.3 686.125 1043.73 673.916C1039.83 668.94 1034.8 664.798 1029.92 660.687C1022.19 654.227 1013.42 648.879 1006.41 641.739C993.028 628.201 992.905 610.582 1005.6 596.395C1012.68 588.482 1020.99 581.651 1028.31 573.923C1040.42 561.127 1052.65 548.423 1063.93 534.915C1076.47 519.862 1097.67 515.288 1114.5 526.879C1122.81 532.597 1129.95 540.726 1135.91 548.979C1147.81 565.423 1157.85 595.251 1157.94 611.695ZM1074.46 596.178C1070.36 601.464 1067.45 605.977 1063.81 609.748C1053.15 620.813 1053.02 620.72 1064.02 631.632C1064.39 632.003 1064.98 632.095 1066.25 632.683C1073.41 626.408 1080.8 619.917 1088.65 613.024C1084.26 607.831 1080.55 603.411 1074.46 596.178Z" fill="black" fill-opacity="0.02"/>
<path d="M781.095 1334.68C728.668 1336.16 676.21 1337.68 623.783 1339C617.109 1339.16 610.282 1338.73 603.732 1337.49C596.812 1336.16 592.363 1331.46 591.838 1324.08C591.313 1316.35 595.02 1310.72 602.311 1308.78C609.571 1306.83 617.14 1305.68 624.647 1305.25C685.972 1301.7 747.327 1298.73 808.652 1294.9C853.139 1292.11 897.565 1288.22 942.021 1284.85C954.039 1283.95 966.057 1282.56 978.075 1282.72C985.18 1282.78 992.564 1284.54 999.237 1287.08C1007.05 1290.04 1011.66 1296.53 1012.21 1305.22C1012.77 1314.25 1009.03 1321.73 1001.06 1325.31C993.583 1328.68 985.118 1331.65 977.086 1331.71C911.776 1332.2 846.435 1331.99 781.126 1331.99C781.095 1332.85 781.095 1333.78 781.095 1334.68Z" fill="black" fill-opacity="0.02"/>
<path d="M1325.26 864.075C1322.92 870.937 1320.82 877.273 1318.53 883.548C1317.29 886.948 1316.43 890.935 1314.08 893.377C1311.45 896.097 1306.91 899.312 1303.95 898.724C1300.95 898.106 1297.15 893.284 1296.75 889.915C1295.79 881.91 1296.22 873.688 1296.81 865.589C1297.58 854.802 1299.53 844.633 1293.44 833.938C1288.1 824.541 1292.98 812.703 1301.6 806.336C1310.37 799.875 1322.39 799.845 1331.32 807.047C1335.61 810.539 1339.01 815.145 1342.6 819.41C1355.39 834.649 1370.43 837.183 1387.24 826.798C1389.62 825.314 1392.06 823.861 1394.19 822.069C1399.75 817.278 1407.6 813.785 1405.28 804.141C1402.78 793.879 1395.83 787.697 1385.04 786.059C1362.55 782.628 1351.46 760.558 1362.12 740.344C1370.4 724.58 1389.77 715.43 1409.42 717.996C1436.05 721.458 1457.55 743.28 1464.9 774.375C1472.32 805.717 1462.59 831.187 1435.18 848.249C1421.19 856.966 1406.55 865.002 1391.32 871.184C1371.17 879.313 1356.19 876.84 1325.26 864.075Z" fill="black" fill-opacity="0.02"/>
<path d="M217.187 1315.69C216.662 1317.92 216.044 1321.81 214.809 1325.52C207.672 1347.41 196.519 1367.16 181.35 1384.41C177.303 1389.01 171.403 1392.66 165.625 1394.79C159.385 1397.08 154.318 1394.27 152.526 1386.85C151.908 1384.28 149.931 1381.47 147.769 1379.99C128.367 1366.63 108.688 1353.68 89.2863 1340.33C78.2262 1332.72 75.9401 1320.08 83.5091 1308.49C92.8391 1294.15 102.663 1280.15 112.024 1265.81C113.94 1262.87 115.206 1259.28 115.793 1255.82C118.388 1240.27 132.816 1233.69 146.039 1242.44C149.282 1244.57 152.063 1247.45 154.936 1250.1C169.734 1263.86 184.471 1277.71 199.331 1291.37C201.339 1293.22 203.872 1294.61 206.375 1295.79C214.222 1299.4 217.465 1305.65 217.187 1315.69Z" fill="black" fill-opacity="0.02"/>
<path d="M833.027 -21.9518C879.523 -21.9518 925.091 -21.9518 971.741 -21.9518C967.509 -14.2553 963.493 -7.30068 959.847 -0.191469C946.903 24.9999 934.329 50.3767 921.106 75.4444C915.638 85.83 909.15 95.752 902.601 105.519C896.669 114.329 888.667 120.48 877.268 118.903C865.559 117.265 859.071 109.26 856.105 98.5957C851.347 81.3172 846.374 64.0387 843.099 46.4511C838.99 24.1344 836.426 1.53947 833.027 -21.9518Z" fill="black" fill-opacity="0.02"/>
<path d="M914.124 2582.96C903.898 2581.63 894.753 2581.54 886.258 2579.13C867.258 2573.78 859.596 2554.4 870.131 2537.71C874.951 2530.04 881.84 2523.43 888.667 2517.31C905.319 2502.35 922.558 2488.1 939.364 2473.29C943.319 2469.8 946.377 2465.29 949.961 2461.36C957.839 2452.83 968.003 2450.91 976.375 2456.26C984.624 2461.52 988.949 2472.98 982.74 2482.16C974.615 2494.22 978.6 2501.39 987.096 2510.45C994.881 2518.73 1001.43 2528.53 1006.9 2538.51C1016.07 2555.29 1009.74 2567.75 991.019 2570.9C965.068 2575.32 939.056 2579.1 914.124 2582.96ZM927.81 2545.31C927.995 2546.02 928.181 2546.7 928.397 2547.41C938.345 2548.09 948.293 2548.74 960.403 2549.58C953.854 2542.44 948.88 2537.03 943.535 2531.22C938.036 2536.13 932.939 2540.71 927.81 2545.31Z" fill="black" fill-opacity="0.02"/>
<path d="M781.156 1042.12C783.473 988.8 796.294 937.707 810.907 886.984C815.139 872.24 827.281 864.42 840.534 866.306C854.282 868.253 864.137 879.349 863.828 894.773C863.612 905.035 862.006 915.483 859.441 925.436C854.653 944.167 848.937 962.651 843.222 981.135C832.811 1014.86 822.091 1048.49 811.587 1082.18C809.115 1090.06 803.647 1093.24 797.437 1088.11C791.938 1083.57 786.872 1076.99 784.771 1070.28C781.959 1061.38 782.207 1051.55 781.156 1042.12Z" fill="black" fill-opacity="0.02"/>
<path d="M898.49 1654.99C933.709 1655.3 958.98 1679.19 956.076 1711C953.605 1738.17 938.744 1757.73 913.627 1768.09C888.511 1778.44 863.95 1776.28 842.139 1759.09C828.236 1748.12 824.529 1731.27 831.697 1715.08C834.168 1709.51 837.474 1704.07 841.428 1699.47C847.916 1691.93 854.373 1685.13 857.864 1674.99C862.529 1661.7 879.181 1654.83 898.49 1654.99ZM888.634 1689.86C888.449 1692.54 889.16 1695.79 887.893 1697.86C884.618 1703.3 881.251 1711.55 876.524 1712.64C869.202 1714.34 866.483 1718.88 863.147 1723.7C859.532 1728.86 861.54 1732.39 866.978 1734.83C883.012 1742.06 903.031 1733.16 908.53 1716.19C913.164 1702 904.267 1690.1 888.634 1689.86Z" fill="black" fill-opacity="0.02"/>
<path d="M1028.8 1147.98C1046.26 1148.82 1062.48 1149.25 1078.6 1150.52C1083.76 1150.92 1089.17 1152.65 1093.71 1155.15C1103.6 1160.59 1107.33 1172.55 1103.19 1182.88C1099.05 1193.2 1087.96 1199.6 1077.15 1196.08C1051.29 1187.61 1026.21 1193.67 1000.94 1198.49C994.633 1199.69 988.238 1201.3 981.936 1201.18C972.482 1201.02 965.438 1195.92 961.7 1187.11C958.085 1178.61 958.858 1169.59 965.469 1163.56C983.604 1147.05 992.779 1124.68 1005.72 1104.8C1007.86 1101.52 1009.93 1098.06 1012.61 1095.31C1020.4 1087.31 1032.42 1086.44 1041 1092.84C1049.78 1099.39 1052.13 1111.35 1046.29 1121.55C1043.66 1126.16 1040.26 1130.33 1037.3 1134.75C1034.52 1138.92 1031.89 1143.16 1028.8 1147.98Z" fill="black" fill-opacity="0.02"/>
<path d="M1018.45 2160.05C1013.94 2165.4 1009.77 2171.12 1004.83 2176C1000.88 2179.87 996.304 2183.42 991.392 2185.93C976.285 2193.62 964.174 2185.15 965.472 2168.09C965.781 2164.2 966.368 2160.33 966.831 2156.19C965.163 2155.57 963.927 2155.02 962.66 2154.68C953.979 2152.23 948.511 2146.73 947.306 2137.74C946.101 2128.8 949.438 2120.49 957.408 2117.28C968.994 2112.61 973.597 2105.1 974.894 2093.17C975.852 2084.33 981.876 2077.83 991.052 2075.76C1000.81 2073.54 1009.43 2077.03 1014.75 2084.88C1020.18 2092.92 1025.78 2093.69 1033.59 2089.58C1036.53 2088.03 1039.86 2087.14 1043.11 2086.27C1051.11 2084.08 1058.37 2085.41 1063.31 2092.55C1068.16 2099.56 1067.7 2107.17 1062.66 2113.72C1057.91 2119.93 1052.44 2125.62 1046.78 2131.03C1042.61 2135.02 1041.1 2139.04 1043.29 2144.44C1044.13 2146.48 1045.24 2149.02 1044.75 2150.94C1043.57 2155.54 1042.68 2161.38 1039.43 2163.92C1036.59 2166.17 1030.72 2164.94 1026.24 2164.63C1024.51 2164.51 1022.84 2162.77 1021.17 2161.79C1020.25 2161.2 1019.35 2160.64 1018.45 2160.05Z" fill="black" fill-opacity="0.02"/>
<path d="M209.184 -22.3177C207.701 -19.4431 206.743 -17.5267 205.755 -15.6104C188.33 17.7102 170.381 50.7526 153.729 84.475C146.438 99.2189 141.99 115.354 136.058 130.809C133.864 136.527 132.073 142.678 128.643 147.623C120.765 158.967 104.762 157.36 100.808 144.223C98.1819 135.507 97.7803 125.059 99.8501 116.219C103.434 101.043 108.284 85.8041 115.174 71.833C129.416 42.9016 145.419 14.8356 160.464 -13.7249C163.832 -20.1232 167.879 -23.1214 175.571 -22.5341C186.384 -21.6995 197.29 -22.3177 209.184 -22.3177Z" fill="black" fill-opacity="0.02"/>
<path d="M-50.5084 658.248C-80.352 656.425 -107.075 651.51 -128.639 631.604C-138.525 622.486 -145.291 611.822 -143.87 597.665C-143.499 594.111 -142.789 590.185 -140.842 587.373C-139.205 584.992 -135.498 582.643 -132.841 582.798C-130.246 582.952 -126.137 585.889 -125.581 588.238C-121.503 606.042 -107.292 613.615 -92.8022 619.24C-61.0741 631.573 -29.4078 630.337 0.126877 612.348C8.19022 607.433 14.4308 599.335 20.8259 592.102C22.1234 590.618 21.5056 585.642 19.9609 583.756C15.543 578.285 14.2146 572.752 17.6129 566.725C21.1966 560.419 27.3136 558.441 34.2339 559.399C46.437 561.099 54.1914 572.474 52.6467 586.291C50.8857 601.838 43.1622 614.418 31.855 624.65C7.94304 646.194 -20.7266 656.054 -50.5084 658.248Z" fill="black" fill-opacity="0.02"/>
<path d="M834.601 2136.84C829.194 2138.13 824.653 2139.53 819.988 2140.33C809.947 2142.03 801.112 2137.11 798.331 2128.58C795.52 2119.9 799.598 2111.12 809.02 2106.51C816.064 2103.08 823.541 2100.46 830.368 2096.72C832.747 2095.42 834.817 2091.99 835.311 2089.2C836.578 2082.06 836.609 2074.71 837.69 2067.54C838.895 2059.47 843.158 2053.5 851.407 2051.19C859.594 2048.87 866.205 2051.9 872.106 2057.34C872.507 2057.71 873.002 2058.08 873.28 2058.54C878.686 2067.88 884.34 2073.25 897.346 2069.55C908.499 2066.36 917.396 2080.09 913.195 2091.52C911.959 2094.86 909.982 2098.2 907.51 2100.7C901.177 2107.07 899.138 2113.31 902.845 2122.4C904.483 2126.45 902.722 2134.36 899.54 2137.21C896.357 2140.05 888.758 2140.58 884.433 2138.81C878.748 2136.5 875.906 2137.89 872.198 2141.53C867.812 2145.83 863.239 2150.1 858.173 2153.5C846.155 2161.56 836.948 2157.21 835.064 2142.96C834.817 2141.32 834.786 2139.68 834.601 2136.84Z" fill="black" fill-opacity="0.02"/>
<path d="M942.272 1897.23C951.448 1892.9 959.944 1888.73 968.625 1884.87C977.615 1880.88 984.381 1881.99 988.366 1887.65C992.259 1893.18 991.27 1900.85 984.628 1907.34C977.646 1914.2 970.046 1920.47 962.415 1926.59C958.584 1929.65 956.885 1932.71 959.109 1937.32C959.357 1937.81 959.418 1938.4 959.542 1938.93C961.21 1946.01 963.929 1953.39 957.349 1959.39C950.768 1965.42 944.033 1961.68 937.916 1958.37C931.058 1954.63 925.775 1955.62 921.264 1961.8C920.43 1962.91 919.318 1963.81 918.422 1964.89C906.157 1979.42 898.187 1974.66 891.977 1957.91C888.208 1947.67 884.253 1944.92 874.676 1945.94C867.416 1946.72 859.414 1947.58 856.912 1937.88C855.151 1931.01 859.909 1925.91 870.938 1921.99C871.216 1921.9 871.463 1921.8 871.741 1921.74C882.029 1920.01 887.837 1915.5 888.486 1903.5C889.166 1891.05 896.333 1881.13 909.617 1878.31C922.562 1875.56 931.737 1881.96 938.781 1892.19C939.739 1893.61 940.697 1894.97 942.272 1897.23Z" fill="black" fill-opacity="0.02"/>
<path d="M280.488 2551.12C275.545 2547.23 270.663 2544.35 266.987 2540.33C257.533 2529.98 253.795 2516.81 252.312 2503.37C248.018 2464.26 252.652 2426.12 266.956 2389.37C268.964 2384.18 271.621 2379.11 274.741 2374.5C280.549 2365.85 289.571 2362.76 298.097 2365.76C306.5 2368.69 311.691 2376.85 310.764 2387.24C310.177 2393.91 308.632 2400.53 307.057 2407.05C299.148 2439.75 291.023 2472.39 283.114 2505.1C280.055 2517.71 277.985 2530.41 282.125 2543.27C282.465 2544.29 282.341 2545.5 282.218 2546.61C282.187 2547.38 281.723 2548.12 280.488 2551.12Z" fill="black" fill-opacity="0.02"/>
<path d="M171.278 1604.39C169.548 1601.27 167.571 1598.27 166.181 1595C155.8 1570.58 138.747 1552.28 115.823 1539.2C95.8968 1527.86 74.7653 1529.84 53.5102 1533.64C47.9802 1534.63 42.5428 1536.02 37.0128 1537.01C26.1072 1538.92 18.1057 1535.31 15.2634 1527.33C12.483 1519.51 16.0049 1510.43 25.86 1505.98C61.9442 1489.69 98.43 1486.35 132.074 1510.8C145.574 1520.63 156.882 1534.35 166.798 1548.01C178.754 1564.52 179.712 1583.87 174.182 1603.25C173.193 1603.65 172.236 1604.02 171.278 1604.39Z" fill="black" fill-opacity="0.02"/>
<path d="M1019.6 2606.42C1020.59 2603.33 1020.77 2601.69 1021.54 2600.39C1036.71 2574.86 1039.89 2547.38 1035.42 2518.48C1033.69 2507.41 1032.42 2496.26 1031.34 2485.1C1030.94 2480.96 1031.15 2476.66 1031.8 2472.52C1033.62 2461.05 1041.35 2453.23 1051.94 2451.68C1061.83 2450.23 1071.96 2455.46 1076.84 2465.28C1078.94 2469.49 1080.46 2474.19 1081.05 2478.82C1085.96 2517.68 1076.38 2552.82 1052.84 2584.01C1044.81 2594.67 1034.7 2602.83 1019.6 2606.42Z" fill="black" fill-opacity="0.02"/>
<path d="M449.292 780.651C445.925 787.049 443.484 792.736 440.086 797.713C437.12 802.04 433.536 806.244 429.335 809.304C418.367 817.217 405.453 812.92 402.519 799.691C400.819 792.056 401.19 783.494 402.673 775.736C404.99 763.403 408.605 751.256 412.405 739.232C418.985 718.43 442.65 713.206 457.201 729.372C466.562 739.757 475.706 750.39 484.202 761.518C493.779 774.067 493.594 786.214 484.82 793.138C475.984 800.093 464.646 797.373 454.019 785.72C452.691 784.298 451.362 782.876 449.292 780.651Z" fill="black" fill-opacity="0.02"/>
<path d="M466.44 1849.23C479.725 1849.32 488.807 1859.21 487.572 1871.36C487.139 1875.47 485.996 1879.71 484.173 1883.42C477.531 1896.99 470.827 1910.56 463.444 1923.72C454.114 1940.38 438.883 1941.56 425.907 1927.37C417.967 1918.68 409.348 1910.62 401.563 1901.81C387.815 1886.26 392.202 1870.47 411.912 1864.41C428.224 1859.4 444.66 1854.79 461.065 1850.1C463.165 1849.48 465.452 1849.39 466.44 1849.23Z" fill="black" fill-opacity="0.02"/>
<path d="M854.625 1053.21C858.734 1023.51 868.033 996.339 884.036 971.92C892.439 959.124 907.299 956.002 918.792 962.246C930.223 968.427 935.876 982.8 929.265 996.71C914.961 1026.72 896.764 1054.26 871.184 1076.15C865.252 1081.22 861.298 1080.04 858.796 1072.41C856.726 1066.04 855.892 1059.33 854.625 1053.21Z" fill="black" fill-opacity="0.02"/>
<path d="M250.244 1986.22C249.905 1963.03 268.317 1942.54 289.82 1942.14C308.387 1941.77 323.494 1957.53 323.803 1977.56C324.143 1999.54 306.101 2019.29 285.278 2019.57C267.607 2019.78 248.669 2010.94 250.244 1986.22Z" fill="black" fill-opacity="0.02"/>
<path d="M1256 104.684C1257.82 81.811 1278.43 51.7669 1299.19 44.0395C1303.33 42.494 1307.84 41.3812 1312.22 41.1958C1326.19 40.5776 1326.87 42.0922 1322.39 54.6415C1317.48 68.3962 1316.05 83.4183 1313.61 97.9767C1312.59 104.004 1313.58 110.372 1312.41 116.337C1310.34 126.939 1304.56 135.13 1293.38 137.541C1281.48 140.076 1271.35 135.903 1264.86 125.95C1260.72 119.583 1258.87 111.793 1256 104.684Z" fill="black" fill-opacity="0.02"/>
<path d="M1124.82 1052C1123.22 1071.17 1122.01 1084.86 1120.93 1098.52C1120.47 1104.24 1117.13 1108.1 1111.78 1107.15C1103.47 1105.69 1093.43 1104.86 1087.78 1099.73C1078.51 1091.35 1071.81 1079.98 1064.79 1069.34C1062.66 1066.13 1062.6 1061.25 1062.48 1057.1C1061.98 1038.28 1075.82 1023.2 1093.43 1023.04C1111.44 1022.89 1125.04 1037.88 1124.82 1052Z" fill="black" fill-opacity="0.02"/>
<path d="M187.993 2411.53C189.012 2403.78 189.259 2395.77 191.36 2388.29C193.028 2382.29 196.056 2376.14 200.041 2371.38C208.846 2360.87 223.861 2359.05 235.168 2366C246.537 2372.96 251.758 2387.3 245.888 2400.68C240.173 2413.73 232.542 2425.91 225.714 2438.43C224.911 2439.88 223.768 2441.18 222.841 2442.57C215.21 2454.47 205.788 2454.81 196.427 2443.46C190.372 2436.2 187.869 2426.15 187.993 2411.53Z" fill="black" fill-opacity="0.02"/>
<path d="M1468.36 2313.83C1485.75 2313.67 1499.96 2327.52 1500.24 2344.95C1500.55 2363.31 1485.78 2378.71 1467.87 2378.71C1449.27 2378.71 1434.13 2364.77 1433.91 2347.46C1433.67 2328.66 1448.68 2314.01 1468.36 2313.83Z" fill="black" fill-opacity="0.02"/>
<path d="M126.608 226.131C125.248 242.884 123.92 259.637 122.468 276.359C122.19 279.419 121.665 282.479 120.831 285.416C118.266 294.256 109.431 296.914 103.623 289.774C98.6487 283.654 94.3236 276.235 92.2537 268.663C86.8473 248.88 87.6814 228.727 92.5317 208.791C93.3041 205.576 94.6325 202.361 96.3316 199.518C100.441 192.656 106.558 188.978 114.652 190.77C122.901 192.594 126.515 198.807 126.979 206.782C127.318 213.18 127.04 219.64 127.04 226.069C126.917 226.1 126.762 226.131 126.608 226.131Z" fill="black" fill-opacity="0.02"/>
<path d="M1163.87 287.672C1166.5 284.767 1167.95 282.696 1169.87 281.15C1176.35 275.926 1184.97 276.885 1190.04 283.221C1196.1 290.825 1194.24 308.289 1186.33 313.914C1184.11 315.522 1179.72 316.944 1177.96 315.831C1172.15 312.183 1168.72 315.831 1164.58 318.458C1160.35 321.147 1156.06 323.929 1151.48 325.907C1140.05 330.884 1129.3 326.278 1126.8 314.131C1124.79 304.425 1124.33 294.132 1125.01 284.21C1125.78 273.423 1134.25 266.344 1143.82 266.19C1153.28 266.004 1160.17 272.063 1162.85 282.912C1163.13 283.994 1163.32 285.076 1163.87 287.672Z" fill="black" fill-opacity="0.02"/>
<path d="M62.9007 1450.65C59.1625 1453.21 56.6601 1455.5 53.7252 1456.89C36.7335 1465.02 22.6768 1476.67 10.6899 1491.17C3.70792 1499.64 -5.59119 1501.87 -14.1488 1498.4C-21.9032 1495.25 -28.1129 1487.15 -26.939 1478.53C-26.0739 1472.22 -23.6024 1465.18 -19.5862 1460.39C-2.93434 1440.57 35.3433 1434.14 57.9577 1446.54C59.3479 1447.28 60.4292 1448.58 62.9007 1450.65Z" fill="black" fill-opacity="0.02"/>
<path d="M1208.82 1418.59C1195.75 1424.99 1184.72 1430.15 1173.91 1435.75C1164.7 1440.51 1155.93 1446.07 1146.66 1450.71C1141.72 1453.18 1136.25 1454.88 1130.84 1456.09C1124.73 1457.48 1118.92 1456.09 1115.43 1450.28C1112 1444.56 1113.39 1438.9 1117.07 1433.77C1118.52 1431.73 1120.22 1429.81 1122.01 1428.08C1138.35 1412.38 1158.03 1403.39 1180.37 1400.98C1186.45 1400.33 1193.25 1401.81 1199.03 1404.1C1205.95 1406.88 1209.38 1413.03 1208.82 1418.59Z" fill="black" fill-opacity="0.02"/>
<path d="M1153.71 2485.78C1152.2 2494.56 1151.7 2503.67 1148.86 2511.99C1146.57 2518.6 1141.97 2524.72 1137.27 2530.1C1134.71 2533.04 1129.86 2533.97 1126.03 2535.79C1126.21 2532.14 1126.37 2528.46 1126.65 2524.82C1127.82 2507.69 1123.28 2492.24 1113.02 2478.48C1112.03 2477.15 1110.58 2476.17 1109.47 2474.9C1102.27 2466.83 1101.65 2455.89 1107.89 2448.01C1114.29 2439.94 1125.81 2437.9 1135.24 2443.4C1145.25 2449.24 1149.54 2458.86 1151.46 2469.67C1152.38 2474.9 1152.41 2480.25 1152.85 2485.56C1153.15 2485.62 1153.43 2485.72 1153.71 2485.78Z" fill="black" fill-opacity="0.02"/>
<path d="M520.097 64.6562C516.513 74.4236 512.775 85.3965 508.295 96.0294C507.338 98.3167 503.816 100.295 501.159 100.728C500.047 100.913 497.791 97.0185 496.71 94.7003C490.438 81.2546 484.29 67.7162 478.235 54.1778C476.073 49.3559 473.57 44.4722 472.612 39.3412C470.573 28.2755 476.567 18.3226 486.237 15.2008C496.432 11.9243 507.924 16.4062 511.694 27.3791C515.617 38.5993 517.069 50.685 520.097 64.6562Z" fill="black" fill-opacity="0.02"/>
<path d="M1060.41 1388.77C1060.75 1380.33 1062.07 1372.85 1070.14 1369.11C1078.26 1365.34 1085.09 1368.8 1090.68 1374.42C1100.78 1384.56 1108.17 1396.4 1110.18 1410.9C1110.73 1414.98 1110.64 1419.37 1109.71 1423.35C1106.04 1439.36 1089.79 1444.19 1078.14 1432.66C1065.87 1420.54 1062.45 1404.59 1060.41 1388.77Z" fill="black" fill-opacity="0.02"/>
<path d="M1044.49 959.775C1030.81 959.589 1018.95 945.495 1018.91 929.452C1018.88 914.43 1032.32 902.406 1048.7 902.839C1063.28 903.241 1074.37 914.492 1074.09 928.68C1073.78 944.598 1059.17 959.96 1044.49 959.775Z" fill="black" fill-opacity="0.02"/>
<path d="M509.071 1098.89C508.917 1111.29 498.66 1122.11 487.075 1122.08C471.412 1122.05 461.402 1113.02 461.649 1099.17C461.896 1085.94 474.872 1070.61 485.654 1070.8C496.096 1070.98 509.226 1086.75 509.071 1098.89Z" fill="black" fill-opacity="0.02"/>
<path d="M21.1946 1405.79C9.11507 1408.7 -2.03768 1409.5 -12.14 1401.65C-21.9334 1394.05 -26.104 1380.88 -20.883 1373.74C-15.1985 1365.95 -0.462057 1366.07 9.60938 1374.14C19.5572 1382.15 21.658 1393.15 21.1946 1405.79Z" fill="black" fill-opacity="0.02"/>
<path d="M689.123 156.985C689 166.752 681.987 174.603 673.491 174.418C660.237 174.17 651.711 166.999 651.649 156.088C651.587 145.517 659.218 137.172 668.919 137.11C678.774 137.017 689.247 147.31 689.123 156.985Z" fill="black" fill-opacity="0.02"/>
<path d="M676.645 1543.23C676.645 1534.08 681.711 1527.65 689.249 1527.21C697.004 1526.78 701.978 1532.22 703.09 1541.84C704.264 1552.07 705.469 1562.3 707.261 1572.4C708.187 1577.75 706.921 1579.2 701.762 1577.63C688.106 1573.46 676.645 1557.82 676.645 1543.23Z" fill="black" fill-opacity="0.02"/>
<path d="M567.805 637.233C567.867 626.879 575.745 618.502 585.446 618.41C595.455 618.317 603.704 626.724 603.426 636.708C603.148 646.63 594.065 655.254 584.086 655.068C574.725 654.914 567.743 647.279 567.805 637.233Z" fill="black" fill-opacity="0.02"/>
<path d="M61.0508 630.063C62.4101 626.879 63.8003 623.726 65.1596 620.542C70.4734 608.024 77.8879 596.031 70.8441 581.411C69.7628 579.154 72.3888 572.602 74.5514 571.891C78.1042 570.716 83.7887 571.365 86.6619 573.653C93.5512 579.185 93.4894 587.531 91.2959 595.351C86.8163 611.177 75.9108 622.088 63.2751 631.484C62.5337 630.99 61.7922 630.526 61.0508 630.063Z" fill="black" fill-opacity="0.02"/>
<path d="M280.272 1184.45C280.025 1193.63 272.58 1200.96 263.497 1200.93C254.043 1200.9 246.659 1193.17 246.876 1183.53C247.092 1174.19 254.352 1167.02 263.528 1167.05C272.95 1167.11 280.519 1174.97 280.272 1184.45Z" fill="black" fill-opacity="0.02"/>
<path d="M223.863 1390.46C224.326 1380.97 230.628 1374.27 238.877 1374.61C247.496 1374.95 254.571 1382.74 254.2 1391.42C253.83 1400.17 246.168 1407.46 237.703 1407.19C229.207 1406.94 223.43 1399.92 223.863 1390.46Z" fill="black" fill-opacity="0.02"/>
<path d="M522.044 604.62C513.301 604.837 506.196 598.098 506.227 589.629C506.258 581.5 512.406 575.318 520.592 575.287C529.057 575.225 535.607 581.964 535.823 590.927C536.039 598.717 530.262 604.435 522.044 604.62Z" fill="black" fill-opacity="0.02"/>
<path d="M294.734 2051.47C301.84 2051.4 307.771 2057.8 308.049 2065.87C308.327 2073.5 302.859 2079.56 295.568 2079.78C287.721 2080 281.82 2074.18 281.82 2066.21C281.82 2058.17 287.628 2051.53 294.734 2051.47Z" fill="black" fill-opacity="0.02"/>
<path d="M1280.93 587.618C1280.9 593.831 1275.52 598.838 1268.73 598.962C1260.73 599.116 1253.74 592.656 1253.81 585.114C1253.84 578.283 1258.69 573.647 1265.58 573.801C1273.52 574.018 1280.96 580.694 1280.93 587.618Z" fill="black" fill-opacity="0.02"/>
<path d="M536.846 114.239C534.436 104.1 531.347 94.0547 530.049 83.7618C529.679 80.8563 534.066 75.0762 536.908 74.6434C539.812 74.1798 546.083 78.3526 546.392 81.0108C547.752 92.6328 545.898 104.038 539.626 114.177C538.7 114.177 537.773 114.208 536.846 114.239Z" fill="black" fill-opacity="0.02"/>
<path d="M663.543 209.962C661.751 211.569 658.939 216.237 655.51 216.762C648.497 217.844 642.628 212.218 642.875 206.315C643.122 199.978 646.705 196.393 653.039 196.423C659.835 196.454 663.079 200.473 663.543 209.962Z" fill="black" fill-opacity="0.02"/>
<path d="M718.353 157.888C717.921 163.884 723.08 171.21 713.441 173.219C711.495 173.621 706.861 170.159 706.613 168.119C705.717 160.206 711.649 158.815 718.353 157.888Z" fill="black" fill-opacity="0.02"/>
<path d="M353.797 271.104C354.507 268.91 355.465 266.746 355.928 264.49C359.234 249.189 363.189 233.982 365.413 218.527C366.865 208.419 365.042 198.652 355.156 191.728C352.252 189.688 350.367 182.764 351.541 179.303C352.87 175.377 357.72 171.266 361.86 169.999C369.46 167.681 376.041 171.884 381.447 177.17C390.344 185.886 394.206 197.014 394.855 209.038C395.936 229.376 389.634 247.427 374.897 261.646C369.738 266.653 362.663 269.682 356.454 273.639C355.558 272.804 354.693 271.97 353.797 271.104Z" fill="black" fill-opacity="0.02"/>
<path d="M336.566 255.343C332.302 250.181 327.267 245.452 324.054 239.703C321.242 234.664 323.776 229.533 329.337 227.555C334.898 225.577 340.211 227.988 341.138 233.613C342.219 240.166 341.076 247.059 340.891 253.828C339.439 254.323 338.018 254.817 336.566 255.343Z" fill="black" fill-opacity="0.02"/>
<path d="M582.445 1974.35C585.751 1964.36 588.037 1953.91 592.671 1944.58C597.367 1935.06 606.512 1930.64 617.386 1932.43C627.921 1934.16 634.131 1941.12 636.602 1951.26C638.116 1957.5 639.105 1963.9 639.97 1970.3C641.453 1980.9 646.489 1989.92 654.861 1995.8C659.835 1999.29 667.188 1999.78 673.583 2000.77C680.132 2001.76 689.369 1998.02 691.161 2007.51C692.799 2016.07 683.53 2017.16 677.908 2020.28C671.822 2023.65 665.488 2026.71 659.557 2030.32C636.664 2044.26 612.412 2039.29 597.089 2017.12C588.377 2004.42 584.577 1990.23 582.445 1974.35Z" fill="black" fill-opacity="0.02"/>
<path d="M640.556 1914.5C640.401 1890.95 657.547 1872.56 679.698 1872.56C702.158 1872.56 721.745 1892.9 721.992 1916.51C722.239 1939.08 704.074 1957.65 681.799 1957.65C658.66 1957.65 640.741 1938.89 640.556 1914.5Z" fill="black" fill-opacity="0.02"/>
<path d="M497.889 2266.91C487.724 2260.45 483.801 2251.82 481.206 2242.67C473.173 2214.3 474.285 2185.52 478.827 2156.81C482.812 2131.49 493.1 2108.59 507.682 2087.57C508.949 2085.75 510.37 2083.95 511.853 2082.28C516.61 2076.91 521.8 2070.94 529.617 2075.76C537.587 2080.68 533.787 2087.85 531.47 2094.52C521.368 2123.3 508.671 2151.52 502.245 2181.1C496.931 2205.58 499.062 2231.7 497.919 2257.08C497.796 2259.83 497.889 2262.55 497.889 2266.91Z" fill="black" fill-opacity="0.02"/>
<path d="M514.881 2245.3C512.996 2238.29 510.71 2232.42 509.907 2226.33C507.095 2204.72 512.811 2184.72 522.851 2165.84C524.52 2162.71 526.991 2159.78 529.772 2157.55C535.085 2153.29 541.202 2152.54 546.763 2156.9C551.954 2160.98 553.097 2166.73 550.347 2172.79C539.843 2196.19 529.215 2219.53 518.588 2242.86C518.403 2243.26 517.692 2243.45 514.881 2245.3Z" fill="black" fill-opacity="0.02"/>
<path d="M653.131 2076.63C651.463 2063.81 658.692 2051.9 667.929 2050.27C670.957 2049.74 676.611 2051.01 677.259 2052.83C678.341 2055.77 677.506 2061.43 675.282 2063.16C668.887 2068.13 661.38 2071.78 653.131 2076.63Z" fill="black" fill-opacity="0.02"/>
</g>
<defs>
<clipPath id="clip0_643_10105">
<rect width="3975.19" height="2764" fill="white" transform="translate(-1220.09 -23)"/>
</clipPath>
</defs>
</svg>
